<?xml version="1.0" encoding="UTF-8"?>
<svg width="32px" height="32px" viewBox="0 0 32 32" version="1.1" xmlns="http://www.w3.org/2000/svg" xmlns:xlink="http://www.w3.org/1999/xlink">
    <!-- Generator: Sketch 63 (92445) - https://sketch.com -->
    <title>5</title>
    <desc>Created with Sketch.</desc>
    <g id="5" stroke="none" stroke-width="1" fill="none" fill-rule="evenodd">
        <g id="资源-5" transform="translate(2.000000, 5.000000)" fill="#A1A1A1" fill-rule="nonzero">
            <path d="M27.15,21.6200294 L1.73,21.6200294 C0.776819188,21.6145375 0.00546248851,20.8431808 0,19.89 L0,16.89 C0.00136638095,16.1321499 0.495827464,15.4634116 1.22,15.24 C1.38607599,9.45465458 5.30973898,4.45573752 10.89,2.92 L10.89,1.73 C10.8955005,0.772932077 11.6729163,0 12.63,0 L16.26,0 C17.2170837,0 17.9944995,0.772932077 18,1.73 L18,2.92 C23.5719939,4.45163243 27.4964614,9.43424654 27.68,15.21 C28.4022217,15.4361574 28.8954367,16.1032104 28.9001154,16.86 L28.9001154,19.86 C28.9053723,20.326671 28.723048,20.775938 28.3939814,21.1068849 C28.0649148,21.4378319 27.6166941,21.6227131 27.15,21.6200294 Z M1.73,15.62 L1.73,16.15 C1.54883121,16.1472752 1.37428286,16.2180425 1.24616269,16.3461627 C1.11804252,16.4742829 1.04727519,16.6488312 1.04992413,16.83 L1.04992413,19.83 C1.04732216,20.0120736 1.1177809,20.1876144 1.24559703,20.3173102 C1.37341316,20.447006 1.54790673,20.52 1.73,20.52 L27.15,20.52 C27.3329994,20.52 27.5085036,20.4473038 27.6379037,20.3179037 C27.7673038,20.1885036 27.84,20.0129994 27.84,19.83 L27.84,16.83 C27.84,16.6479067 27.767006,16.4734132 27.6373102,16.345597 C27.5076144,16.2177809 27.3320736,16.1473222 27.15,16.15 L17.47,16.15 L17.47,16.15 L1.73,16.15 L1.73,15.62 Z M18,15.13 L26.63,15.13 C26.4192125,9.9599658 22.9546332,5.49174236 18,4 L18,15.13 Z M12,15.13 L17,15.13 L17,3.32 L17,3.32 L17,1.73 C17,1.54790673 16.927006,1.37341316 16.7973102,1.24559703 C16.6676144,1.1177809 16.4920736,1.04732216 16.31,1.04992637 L12.63,1.04992637 C12.4479264,1.04732216 12.2723856,1.1177809 12.1426898,1.24559703 C12.012994,1.37341316 11.94,1.54790673 11.94,1.73 L11.94,3.32 L11.94,3.32 L12,15.13 Z M2.33,15.13 L10.95,15.13 L10.95,4 C5.97383016,5.47144818 2.48480145,9.94528339 2.27,15.13 L2.33,15.13 Z" id="形状"></path>
        </g>
    </g>
</svg>