<svg width="20" height="20" xmlns="http://www.w3.org/2000/svg"><g><path d="M16.188 12h-1.625V9.625a.125.125 0 0 0-.126-.125h-3.874V8h1.687a.25.25 0 0 0 .25-.25v-4.5a.25.25 0 0 0-.25-.25h-4.5a.25.25 0 0 0-.25.25v4.5c0 .138.112.25.25.25h1.688v1.5H5.562a.125.125 0 0 0-.125.125V12H3.813a.25.25 0 0 0-.25.25v4.5c0 .137.113.25.25.25h4.5a.25.25 0 0 0 .25-.25v-4.5a.25.25 0 0 0-.25-.25h-1.75v-1.375h6.875V12h-1.75a.25.25 0 0 0-.25.25v4.5c0 .137.113.25.25.25h4.5a.25.25 0 0 0 .25-.25v-4.5a.25.25 0 0 0-.25-.25zm-8.813 1.188v2.624H4.75v-2.624h2.625zm1.313-6.376V4.188h2.624v2.625H8.688zm6.562 9h-2.625v-2.624h2.625v2.624z"/><path d="M8 4h4v3H8zM4 13h4v3H4zM12 13h4v3h-4z"/></g></svg>