<?xml version="1.0" encoding="UTF-8"?>
<svg width="32px" height="32px" viewBox="0 0 32 32" version="1.1" xmlns="http://www.w3.org/2000/svg" xmlns:xlink="http://www.w3.org/1999/xlink">
    <!-- Generator: Sketch 63 (92445) - https://sketch.com -->
    <title>1</title>
    <desc>Created with Sketch.</desc>
    <g id="1" stroke="none" stroke-width="1" fill="none" fill-rule="evenodd">
        <g id="资源-1" transform="translate(3.000000, 1.000000)" fill="#A1A1A1" fill-rule="nonzero">
            <path d="M22.39,29.26 L22.39,29.65 L4.18,29.65 C1.8698331,29.6444865 0,27.7701735 0,25.46 L0,4.18 C0,1.87144975 1.87144975,0 4.18,0 L22.39,0 C24.6985503,0 26.57,1.87144975 26.57,4.18 L26.57,25.46 C26.57,27.7701735 24.7001669,29.6444865 22.39,29.65 L22.39,28.87 C24.2693846,28.8644886 25.7900081,27.3393927 25.79,25.46 L25.79,4.18 C25.79,2.30223185 24.2677681,0.78 22.39,0.78 L4.18,0.78 C2.30223185,0.78 0.78,2.30223185 0.78,4.18 L0.78,25.46 C0.779991919,27.3393927 2.30061543,28.8644886 4.18,28.87 L22.39,28.87 L22.39,29.26 Z" id="路径"></path>
            <path d="M6.34,8.8 C6.35097816,9.22800652 6.70490672,9.56715973 7.13299225,9.55988743 C7.56107777,9.55261513 7.90328239,9.20163603 7.89971649,8.77350359 C7.89615059,8.34537115 7.54814727,8.00014077 7.12,8 C6.6892179,8 6.34,8.3492179 6.34,8.78" id="路径"></path>
            <rect id="矩形" x="6.34" y="8.02" width="1.55" height="1.55"></rect>
            <polyline id="路径" points="9.84 8.41 19.68 8.41 19.68 9.19 9.84 9.19"></polyline>
            <path d="M6.34,14.15 C6.34,14.4654806 6.5300409,14.7498969 6.82150692,14.870626 C7.11297295,14.9913552 7.44846485,14.9246217 7.67154329,14.7015433 C7.89462173,14.4784649 7.96135522,14.1429729 7.84062604,13.8515069 C7.71989686,13.5600409 7.43548055,13.37 7.12,13.37 C6.6892179,13.37 6.34,13.7192179 6.34,14.15" id="路径"></path>
            <rect id="矩形" x="6.34" y="13.37" width="1.55" height="1.55"></rect>
            <polyline id="路径" points="9.84 13.76 19.68 13.76 19.68 14.54 9.84 14.54"></polyline>
            <path d="M6.34,19.5 C6.34,19.9307821 6.6892179,20.28 7.12,20.28 C7.5507821,20.28 7.9,19.9307821 7.9,19.5 C7.9,19.0692179 7.5507821,18.72 7.12,18.72 C6.6892179,18.72 6.34,19.0692179 6.34,19.5" id="路径"></path>
            <rect id="矩形" x="6.34" y="18.73" width="1.55" height="1.55"></rect>
            <polyline id="路径" points="9.84 19.11 19.68 19.11 19.68 19.89 9.84 19.89"></polyline>
        </g>
    </g>
</svg>