<?xml version="1.0" standalone="no"?><!DOCTYPE svg PUBLIC "-//W3C//DTD SVG 1.1//EN" "http://www.w3.org/Graphics/SVG/1.1/DTD/svg11.dtd"><svg t="1596206585061" class="icon" viewBox="0 0 1024 1024" version="1.1" xmlns="http://www.w3.org/2000/svg" p-id="6029" xmlns:xlink="http://www.w3.org/1999/xlink" width="200" height="200"><defs><style type="text/css"></style></defs><path d="M728.32 62.0032a38.2976 38.2976 0 0 0-51.2512 17.9712 38.4 38.4 0 0 0 17.9712 51.2512A424.8576 424.8576 0 0 1 934.4 512c0 232.9088-189.4912 422.4-422.4 422.4S89.6 744.9088 89.6 512 279.0912 89.6 512 89.6a38.4 38.4 0 0 0 0-76.8C236.7488 12.8 12.8 236.7488 12.8 512s223.9488 499.2 499.2 499.2 499.2-223.9488 499.2-499.2a502.1184 502.1184 0 0 0-282.88-449.9968z" fill="#489e7e" p-id="6030"></path><path d="M622.6944 259.9936a38.4 38.4 0 0 0-54.3232 0L350.1056 478.3104a38.4 38.4 0 0 0 27.136 65.536h176.7936l-165.888 165.888a38.4 38.4 0 0 0 54.272 54.3232l231.4752-231.4752a38.4 38.4 0 0 0-27.136-65.536H469.9648l152.7296-152.7296a38.4 38.4 0 0 0 0-54.3232z" fill="#489e7e" p-id="6031"></path></svg>