<?xml version="1.0" encoding="UTF-8"?>
<svg width="32px" height="32px" viewBox="0 0 32 32" version="1.1" xmlns="http://www.w3.org/2000/svg" xmlns:xlink="http://www.w3.org/1999/xlink">
    <!-- Generator: Sketch 63 (92445) - https://sketch.com -->
    <title>6</title>
    <desc>Created with Sketch.</desc>
    <g id="6" stroke="none" stroke-width="1" fill="none" fill-rule="evenodd">
        <g id="资源-6" transform="translate(2.000000, 2.000000)" fill="#A1A1A1" fill-rule="nonzero">
            <polygon id="路径" points="4.24 27.22 4.24 27.63 0 27.63 0 20.28 4.64 20.28 4.64 27.63 4.24 27.63 4.24 27.22 3.83 27.22 3.83 21.09 0.81 21.09 0.81 26.82 4.24 26.82 4.24 27.22 3.83 27.22"></polygon>
            <polygon id="路径" points="11.9 27.22 11.9 27.63 7.66 27.63 7.66 8.37 12.3 8.37 12.3 27.63 11.9 27.63 11.9 27.22 11.49 27.22 11.49 9.18 8.47 9.18 8.47 26.82 11.9 26.82 11.9 27.22 11.49 27.22"></polygon>
            <polygon id="路径" points="19.56 27.22 19.56 27.63 15.32 27.63 15.32 14.48 19.96 14.48 19.96 27.63 19.56 27.63 19.56 27.22 19.16 27.22 19.16 15.29 16.13 15.29 16.13 26.82 19.56 26.82 19.56 27.22 19.16 27.22"></polygon>
            <polygon id="路径" points="27.22 27.22 27.22 27.63 22.99 27.63 22.99 0 27.63 0 27.63 27.63 27.22 27.63 27.22 27.22 26.82 27.22 26.82 0.81 23.79 0.81 23.79 26.82 27.22 26.82 27.22 27.22 26.82 27.22"></polygon>
        </g>
    </g>
</svg>