<?xml version="1.0" encoding="UTF-8"?>
<svg width="32px" height="32px" viewBox="0 0 32 32" version="1.1" xmlns="http://www.w3.org/2000/svg" xmlns:xlink="http://www.w3.org/1999/xlink">
    <!-- Generator: Sketch 63 (92445) - https://sketch.com -->
    <title>9</title>
    <desc>Created with Sketch.</desc>
    <g id="9" stroke="none" stroke-width="1" fill="none" fill-rule="evenodd">
        <g id="资源-9" transform="translate(2.000000, 2.000000)" fill="#A1A1A1" fill-rule="nonzero">
            <path d="M28.08,15 L27.72,15 L27.72,13.4 C27.72,12.9692179 27.3707821,12.62 26.94,12.62 L24,12.62 L23.94,12.32 C23.6928048,11.0048708 23.1826103,9.75319368 22.44,8.64 L22.27,8.39 L24.35,6.32 C24.64207,6.01149575 24.64207,5.52850425 24.35,5.22 L23.2,4.1 C23.0521406,3.95810603 22.8549285,3.87922119 22.65,3.88 C22.444665,3.87705791 22.2466618,3.95625921 22.1,4.1 L20.05,6.15 L19.8,6 C18.6874355,5.21351054 17.4243644,4.66538536 16.09,4.39 L15.8,4.33 L15.8,1.5 C15.8000692,1.28961883 15.7151511,1.08813057 15.5645181,0.941263438 C15.4138852,0.794396305 15.210312,0.714605599 15,0.72 L13.4,0.72 C12.9692179,0.72 12.62,1.0692179 12.62,1.5 L12.62,4.25 L12.32,4.25 C10.9426453,4.50399713 9.63219728,5.03838764 8.47,5.82 L8.23,6 L6.34,4.1 C6.03149575,3.80793 5.54850425,3.80793 5.24,4.1 L4.1,5.24 C3.80793,5.54850425 3.80793,6.03149575 4.1,6.34 L6,8.19 L5.83,8.44 C5.00810714,9.60854469 4.44241697,10.9375758 4.17,12.34 L4.17,12.64 L1.5,12.64 C1.0692179,12.64 0.72,12.9892179 0.72,13.42 L0.72,15 C0.72,15.4307821 1.0692179,15.78 1.5,15.78 L4.06,15.78 L4.12,16.08 C4.3839661,17.4877421 4.94287884,18.8236799 5.76,20 L5.94,20.25 L4.1,22.1 C3.95625921,22.2466618 3.87705791,22.444665 3.88,22.65 C3.87922119,22.8549285 3.95810603,23.0521406 4.1,23.2 L5.24,24.33 C5.38482849,24.477815 5.58305905,24.5611123 5.79,24.5611123 C5.99694095,24.5611123 6.19517151,24.477815 6.34,24.33 L8.2,22.47 L8.45,22.64 C9.625244,23.4186851 10.9502205,23.9432259 12.34,24.18 L12.64,24.23 L12.64,26.94 C12.64,27.3707821 12.9892179,27.72 13.42,27.72 L15,27.72 C15.4307821,27.72 15.78,27.3707821 15.78,26.94 L15.78,24.17 L16.07,24.11 C17.4136319,23.8292308 18.6861012,23.2780543 19.81,22.49 L20.05,22.31 L22.05,24.31 C22.1929765,24.4603899 22.3925279,24.5438387 22.6,24.54 C22.8070063,24.5414383 23.0056419,24.4583725 23.15,24.31 L24.29,23.18 C24.431894,23.0321406 24.5107788,22.8349285 24.51,22.63 C24.5129421,22.424665 24.4337408,22.2266618 24.29,22.08 L22.28,20 L22.44,19.75 C23.1823881,18.6330334 23.6925061,17.3781431 23.94,16.06 L23.94,15.76 L26.94,15.76 C27.3707821,15.76 27.72,15.4107821 27.72,14.98 L28.44,14.98 C28.44,15.8084271 27.7684271,16.48 26.94,16.48 L24.29,16.48 L24.29,16.12 L24.64,16.19 C24.3815062,17.6174842 23.8372867,18.978033 23.04,20.19 L22.74,19.99 L22.99,19.74 L24.84,21.59 C25.1223219,21.8704068 25.2807561,22.2520891 25.28,22.65 C25.2764322,23.0470412 25.1186532,23.4271452 24.84,23.71 L23.71,24.84 C23.4271452,25.1186532 23.0470412,25.2764322 22.65,25.28 C22.2520891,25.2807561 21.8704068,25.1223219 21.59,24.84 L19.78,23 L20.03,22.75 L20.24,23.04 C19.0400084,23.8880099 17.6784929,24.4802691 16.24,24.78 L16.16,24.43 L16.52,24.43 L16.52,26.91 C16.52,27.7384271 15.8484271,28.41 15.02,28.41 L13.42,28.41 C12.5915729,28.41 11.92,27.7384271 11.92,26.91 L11.92,24.53 L12.28,24.53 L12.22,24.89 C10.7298627,24.6378278 9.3092406,24.0757112 8.05,23.24 L8.25,22.94 L8.5,23.19 L6.85,24.84 C6.26436491,25.4249068 5.31563509,25.4249068 4.73,24.84 L3.6,23.71 C3.31672742,23.4302322 3.15812015,23.0481329 3.16,22.65 C3.15463942,22.2511898 3.31379023,21.867781 3.6,21.59 L5.22,20 L5.47,20.25 L5.18,20.46 C4.29686055,19.2024515 3.69332291,17.7703283 3.41,16.26 L3.76,16.19 L3.76,16.55 L1.5,16.55 C1.09335872,16.550226 0.704050316,16.3853457 0.421263215,16.0931324 C0.138476114,15.800919 -0.0135547741,15.4064154 3.88903319e-16,15 L3.88903319e-16,13.4 C2.87421996e-16,12.5715729 0.671572875,11.9 1.5,11.9 L3.77,11.9 L3.77,12.26 L3.42,12.19 C3.70645365,10.6836969 4.30978283,9.25547698 5.19,8 L5.49,8.2 L5.23,8.46 L3.6,6.85 C3.01509324,6.26436491 3.01509324,5.31563509 3.6,4.73 L4.73,3.6 C5.31563509,3.01509324 6.26436491,3.01509324 6.85,3.6 L8.53,5.27 L8.27,5.52 L8.07,5.23 C9.32129329,4.39505575 10.7359686,3.83600333 12.22,3.59 L12.28,3.94 L11.92,3.94 L11.92,1.5 C11.92,0.671572875 12.5915729,0 13.42,0 L15,0 C15.8284271,0 16.5,0.671572875 16.5,1.5 L16.5,4 L16.14,4 L16.22,3.65 C17.6566164,3.95019768 19.0173954,4.53873462 20.22,5.38 L20,5.68 L19.75,5.43 L21.59,3.6 C21.867781,3.31379023 22.2511898,3.15463942 22.65,3.16 C23.0481329,3.15812015 23.4302322,3.31672742 23.71,3.6 L24.84,4.73 C25.1186532,5.01285477 25.2764322,5.39295885 25.28,5.79 C25.2785608,6.18747236 25.1204614,6.56834816 24.84,6.85 L23,8.71 L22.75,8.46 L23.04,8.26 C23.844588,9.47024923 24.3956702,10.8309462 24.66,12.26 L24.3,12.33 L24.3,11.97 L26.96,11.97 C27.7884271,11.97 28.46,12.6415729 28.46,13.47 L28.46,15 L28.08,15 Z" id="路径"></path>
            <path d="M10.52,14.24 L10.17,14.24 C10.1701721,12.0374078 11.9509677,10.2494093 14.1535413,10.2403118 C16.3561149,10.2312834 18.1515641,12.0045666 18.169862,14.2070829 C18.1881598,16.4095991 16.4224202,18.2124676 14.22,18.24 C12.0026284,18.240169 10.197375,16.4572026 10.17,14.24 L10.88,14.24 C10.88,16.0846311 12.3753689,17.58 14.22,17.58 C16.0646311,17.58 17.56,16.0846311 17.56,14.24 C17.56,12.3953689 16.0646311,10.9 14.22,10.9 C12.3753689,10.9 10.88,12.3953689 10.88,14.24 L10.52,14.24 Z" id="路径"></path>
        </g>
    </g>
</svg>