<?xml version="1.0" encoding="UTF-8"?>
<svg width="32px" height="32px" viewBox="0 0 32 32" version="1.1" xmlns="http://www.w3.org/2000/svg" xmlns:xlink="http://www.w3.org/1999/xlink">
    <!-- Generator: Sketch 63 (92445) - https://sketch.com -->
    <title>4</title>
    <desc>Created with Sketch.</desc>
    <g id="4" stroke="none" stroke-width="1" fill="none" fill-rule="evenodd">
        <g id="资源-4" transform="translate(5.000000, 1.000000)" fill="#A1A1A1" fill-rule="nonzero">
            <path d="M19.15,0.45 L19.15,0.9 L3.64,0.9 C2.13127516,0.910893745 0.910893745,2.13127516 0.9,3.64 L0.9,25.75 C0.910893745,27.2587248 2.13127516,28.4791063 3.64,28.49 L19.15,28.49 C20.6626286,28.4845591 21.8890486,27.2625987 21.9,25.75 L21.9,3.64 C21.8890486,2.12740125 20.6626286,0.90544093 19.15,0.9 L19.15,0 C21.1596755,0.00546097201 22.7890255,1.63034709 22.8,3.64 L22.8,25.75 C22.7890255,27.7596529 21.1596755,29.384539 19.15,29.39 L3.64,29.39 C1.63196359,29.384506 0.00549397448,27.7580364 0,25.75 L0,3.64 C0.00549397448,1.63196359 1.63196359,0.00549397448 3.64,0 L19.15,0 L19.15,0.45 Z M19.15,7.45 L19.6000365,7.45 C19.6042854,7.95525928 19.230992,8.3843321 18.73,8.45 C18.580341,8.44840599 18.4343905,8.40323083 18.31,8.32 L18.31,8.32 L16.83,7.39 L16.89,7.3 L16.89,7.41 L16.83,7.41 L16.89,7.32 L16.89,7.32 L16.95,7.41 L16.89,7.41 L16.89,7.3 L16.95,7.39 L15.47,8.32 C15.3426608,8.39547993 15.1979944,8.43681317 15.05,8.44 C14.549008,8.3743321 14.1757146,7.94525928 14.1799635,7.44 L14.1799635,1.28 C14.27,0.84 14.1799635,0.21 15.05,0 L18.73,0 C19.58,0.21 19.51,0.84 19.6000365,1.28 L19.6000365,7.43 L18.7,7.43 L18.7,1.28 C18.6932365,1.15966025 18.6661891,1.04132818 18.62,0.93 L18.62,0.84 L18.78,0.69 L18.78,0.9 C18.7135932,0.913533805 18.6450051,0.890671116 18.6,0.84 L18.76,0.69 L18.76,0.9 L15.08,0.9 L15.08,0.69 L15.25,0.84 C15.2027675,0.880446473 15.1421566,0.901838531 15.08,0.9 L15.08,0.69 L15.25,0.84 C15.1645545,0.971379759 15.1161842,1.12340071 15.11,1.28 L15.11,7.43 C15.11,7.54 15.11,7.54 15.11,7.54 L15.11,7.65 L15,7.55 L15.05,7.55 L15.05,7.66 L15,7.55 L16.47,6.63 C16.5959394,6.55132137 16.7415043,6.5097314 16.89,6.51 C17.0387263,6.50803921 17.1847589,6.54976281 17.31,6.63 L18.79,7.55 L18.79,7.55 L18.73,7.65 L18.73,7.54 L18.79,7.54 L18.73,7.64 L18.73,7.54 C18.73,7.54 18.73,7.54 18.73,7.43 L19.15,7.45 Z" id="形状"></path>
        </g>
    </g>
</svg>