<?xml version="1.0" encoding="UTF-8"?>
<svg width="32px" height="32px" viewBox="0 0 32 32" version="1.1" xmlns="http://www.w3.org/2000/svg" xmlns:xlink="http://www.w3.org/1999/xlink">
    <!-- Generator: Sketch 63 (92445) - https://sketch.com -->
    <title>3</title>
    <desc>Created with Sketch.</desc>
    <g id="3" stroke="none" stroke-width="1" fill="none" fill-rule="evenodd">
        <g id="资源-3" transform="translate(2.000000, 5.000000)" fill="#A1A1A1" fill-rule="nonzero">
            <path d="M14.49,5.16 L14.49,5.5 C8.68175171,5.39538781 3.33120665,8.64073659 0.74,13.84 L0.4,13.71 L0.74,13.57 C3.31709366,18.7835047 8.67551548,22.0375281 14.49,21.92 C20.3047448,22.0290951 25.6619438,18.7781786 28.25,13.57 L28.59,13.71 L28.25,13.84 C25.6572337,8.63743151 20.3018313,5.39149718 14.49,5.5 L14.49,4.82 C20.5875206,4.7095912 26.2055547,8.11387087 28.93,13.57 L28.99,13.71 L28.93,13.84 C26.2092857,19.2995659 20.5888401,22.7053068 14.49,22.59 C8.39408174,22.7038666 2.77728689,19.2979792 0.06,13.84 L0,13.71 L0.06,13.57 C2.78102038,8.11545739 8.39540296,4.71103275 14.49,4.82 L14.49,5.16 Z" id="路径"></path>
            <path d="M10,13.71 L9.67,13.71 C9.77828189,11.1529857 11.9324898,9.16414229 14.49,9.26 C17.0513443,9.15848702 19.211759,11.1489312 19.32,13.71 C19.2064214,16.2671037 17.0476075,18.2516034 14.49,18.15 C11.9341765,18.2515176 9.77823632,16.2655477 9.67,13.71 L10.4,13.71 C10.5234339,15.8640757 12.3330193,17.5320798 14.49,17.48 C16.6508166,17.5375719 18.4664758,15.8680511 18.59,13.71 C18.4664758,11.5519489 16.6508166,9.88242812 14.49,9.94 C12.3330193,9.88792015 10.5234339,11.5559243 10.4,13.71 L10,13.71 Z" id="路径"></path>
            <path d="M3.82,9.07 L3.76,9.07 C3.5,9.3 2.99,9.18998779 2.62,8.82 L0.93,7.21 C0.56,6.85 0.48,6.37 0.74,6.15 L0.8,6.1 C1.1875078,5.89009591 1.67001387,5.99167614 1.94,6.34 L3.64,8 C4,8.37 4.09,8.85 3.82,9.07 Z" id="路径"></path>
            <path d="M14.43,5.25 L14.35,5.25 C14.01,5.25 13.72,4.78 13.72,4.25 L13.72,1.87 C13.72,1.36 13.99,0.96 14.34,0.99 L14.42,0.99 C14.77,0.99 15.05,1.45 15.05,1.99 L15.05,4.36 C15.05,4.88 14.78,5.27 14.43,5.25 Z" id="路径"></path>
            <path d="M25.37,9.41 L25.31,9.35 C25.0524371,8.99331123 25.0905023,8.50269269 25.4,8.19 L26.82,6.28 C27.13,5.87 27.58,5.73 27.82,5.96 L27.88,5.96 C28.1375629,6.31668877 28.0994977,6.80730731 27.79,7.12 L26.39,9.08 C26.09,9.49 25.63,9.64 25.37,9.41 Z" id="路径"></path>
        </g>
    </g>
</svg>