<?xml version="1.0" encoding="UTF-8"?>
<svg width="32px" height="32px" viewBox="0 0 32 32" version="1.1" xmlns="http://www.w3.org/2000/svg" xmlns:xlink="http://www.w3.org/1999/xlink">
    <!-- Generator: Sketch 63 (92445) - https://sketch.com -->
    <title>7</title>
    <desc>Created with Sketch.</desc>
    <g id="7" stroke="none" stroke-width="1" fill="none" fill-rule="evenodd">
        <g id="资源-7" transform="translate(1.000000, 11.000000)" fill="#A1A1A1" fill-rule="nonzero">
            <path d="M26.47,-3.46944695e-16 L4.66,-3.46944695e-16 C3.6752047,-0.0362716559 2.71700643,0.323953257 2,1 C0.854257783,2.16720771 0.648235682,3.96372044 1.5,5.36 C2.14902371,6.43525865 3.31405024,7.09177197 4.57,7.09 L24.83,7.09 L24.73,7.09 L27.24,9.2 L27.59,9.5 C27.7,9.59 27.89,9.5 27.84,9.36 L27.11,7.23 L27,6.88 L26.86,7.07 C28.2800436,6.88903555 29.4579318,5.8839043 29.86,4.51 C30.2489201,3.13544379 29.7760537,1.66167689 28.66,0.77 C28.0396485,0.270239467 27.2666142,-0.00155797729 26.47,-3.46944695e-16 C26.3871573,-3.52148866e-16 26.32,0.0671572875 26.32,0.15 C26.32,0.232842712 26.3871573,0.3 26.47,0.3 C28.1703143,0.325100532 29.5638221,1.65667811 29.6661395,3.35409669 C29.7684568,5.05151528 28.5449879,6.54083952 26.86,6.77 C26.8135758,6.77207139 26.7703458,6.79422409 26.7415507,6.83069788 C26.7127556,6.86717168 26.7012406,6.91436263 26.71,6.96 L27.45,9.09 L27.56,9.4 L27.8,9.25 L25.68,7.47 C25.44,7.26 25.2,7.03 24.94,6.84 C24.8388041,6.81027641 24.7311959,6.81027641 24.63,6.84 L4.56,6.84 C3.96989891,6.84243678 3.38987518,6.68707328 2.88,6.39 C2.15367216,5.94129687 1.62471888,5.23364316 1.4,4.41 C1.18052375,3.5983785 1.28824167,2.73304458 1.7,2 C2.28579079,0.93863518 3.40779815,0.285411718 4.62,0.3 L26.47,0.3 C26.5528427,0.3 26.62,0.232842712 26.62,0.15 C26.62,0.0671572875 26.5528427,-3.41740525e-16 26.47,-3.46944695e-16 Z" id="路径"></path>
            <path d="M21.79,0.71 L5,0.71 C3.36889295,0.653030222 1.99149117,1.91046475 1.9,3.54 L1.9,3.54 C1.99670309,5.16556656 3.37256293,6.41715518 5,6.36 L21.79,6.36 L21.79,0.71 Z" id="路径"></path>
            <path d="M10.18,6.36 L26.18,6.36 C27.4326241,6.31609243 28.5382663,5.52915851 28.99,4.36 C29.1852615,3.8101541 29.1852615,3.2098459 28.99,2.66 C28.7776793,2.0985972 28.3969568,1.61658152 27.9,1.28 C27.3056117,0.894693422 26.6080489,0.699375817 25.9,0.72 L10.18,0.72 C10.1366282,0.707025639 10.0896597,0.715824386 10.0539251,0.743617967 C10.0181905,0.771411547 9.99810098,0.814769051 9.99987648,0.86 L9.99987648,6.21 C10.0174237,6.27578299 10.0769486,6.32159427 10.145,6.32159427 C10.2130514,6.32159427 10.2725763,6.27578299 10.29,6.21 L10.29,0.86 L10.18,1 L26.05,1 C27.2154777,0.977769394 28.2753551,1.67244559 28.72,2.75 C28.9153538,3.27577363 28.9153538,3.85422637 28.72,4.38 C28.5022922,4.90156456 28.1193438,5.33721224 27.63,5.62 C27.1592022,5.90351707 26.6195701,6.05226182 26.07,6.05 L10.18,6.05 C10.0943959,6.05 10.025,6.11939586 10.025,6.205 C10.025,6.29060414 10.0943959,6.36 10.18,6.36 Z" id="路径"></path>
        </g>
    </g>
</svg>