<?xml version="1.0" encoding="UTF-8"?>
<svg width="32px" height="32px" viewBox="0 0 32 32" version="1.1" xmlns="http://www.w3.org/2000/svg" xmlns:xlink="http://www.w3.org/1999/xlink">
    <!-- Generator: Sketch 63 (92445) - https://sketch.com -->
    <title>2</title>
    <desc>Created with Sketch.</desc>
    <g id="2" stroke="none" stroke-width="1" fill="none" fill-rule="evenodd">
        <g id="资源-2" transform="translate(1.000000, 3.000000)" fill="#A1A1A1" fill-rule="nonzero">
            <path d="M8.34,6.72 L7.90999254,6.72 C7.90999254,4.00110435 9.54836255,1.55011823 12.0606824,0.510578569 C14.5730022,-0.528961093 17.4641769,0.047808802 19.3852944,1.97178935 C21.3064119,3.89576991 21.8788756,6.78780038 20.8355958,9.29856932 C19.7923159,11.8093383 17.3388926,13.444046 14.62,13.4400075 C12.8386634,13.4400075 11.1304314,12.731685 9.87177446,11.4711523 C8.61311751,10.2106195 7.90734525,8.50133463 7.90999254,6.72 L8.77,6.72 C8.77000345,9.09105802 10.198831,11.2284566 12.3897909,12.1348842 C14.5807508,13.0413118 17.1020239,12.5381195 18.7771828,10.8600971 C20.4523416,9.18207479 20.951227,6.65994587 20.0410587,4.47053732 C19.1308904,2.28112877 16.9910546,0.855953826 14.62,0.86 C11.3875173,0.86551619 8.76999529,3.48751259 8.77,6.72 L8.34,6.72 Z" id="路径"></path>
            <path d="M14.62,16.61 L14.62,17 C6.9,17.05 0.88,21 0.86,25.39 L0.43,25.39 L0.43,25 L28.82,25 L28.82,25.43 L28.39,25.43 C28.39,21 22.39,17.09 14.62,17.08 L14.62,16.22 C22.62,16.22 29.19,20.16 29.25,25.43 L29.25,25.86 L0,25.86 L0,25.43 C0.06,20.16 6.68,16.23 14.62,16.22 L14.62,16.61 Z" id="路径"></path>
        </g>
    </g>
</svg>