<?xml version="1.0" encoding="UTF-8"?>
<svg width="32px" height="32px" viewBox="0 0 32 32" version="1.1" xmlns="http://www.w3.org/2000/svg" xmlns:xlink="http://www.w3.org/1999/xlink">
    <!-- Generator: Sketch 63 (92445) - https://sketch.com -->
    <title>8</title>
    <desc>Created with Sketch.</desc>
    <g id="8" stroke="none" stroke-width="1" fill="none" fill-rule="evenodd">
        <g id="资源-8" transform="translate(2.000000, 6.000000)" fill="#A1A1A1" fill-rule="nonzero">
            <path d="M14.34,19.19 L14.34,19.19 C14.34,19.19 12.7,18.66 11.55,18.27 C10.1564008,17.8571242 8.7132567,17.6351021 7.26,17.61 C6.13365513,17.5632696 5.00574743,17.6505481 3.9,17.87 C3.47,17.98 3.14,18.04 2.9,18.1 C2.50429216,18.1610453 2.1156884,18.2615462 1.74,18.4 C1,18.65 0.4,18.91 0.4,18.91 L0.31,19 L0.31,1.52 L0.31,1.52 C2.13967025,0.755930003 4.09751522,0.345359393 6.08,0.31 L6.48,0.31 C7.9177465,0.322626037 9.34972305,0.493658365 10.75,0.82 C11.5782596,0.984517674 12.3911476,1.21868293 13.18,1.52 L13.43,1.62 C13.6828169,1.72427467 13.9436714,1.80788185 14.21,1.87 C14.6822217,1.61688325 15.192057,1.44131084 15.72,1.35 C16.86,1.09 19.22,0.56 20.39,0.43 C21.2795393,0.328776599 22.1749738,0.288682517 23.07,0.31 C24.218693,0.367828379 25.3582064,0.545458419 26.47,0.84 C27.39,1.11 28.55,1.5 28.56,1.5 L28.61,1.5 L28.61,18.8 L28.52,18.8 C27.654394,18.4578196 26.761149,18.1901806 25.85,18 C24.7026088,17.7751063 23.5387095,17.6446693 22.37,17.61 C21.2059673,17.6297175 20.0440395,17.7165282 18.89,17.87 C18.47,17.95 17.01,18.24 16.11,18.53 C15.21,18.82 14.38,19.18 14.37,19.19 L14.34,19.19 Z M7.24,17.47 C8.70649427,17.4937056 10.1630391,17.7157194 11.57,18.13 C12.64,18.5 14.13,18.98 14.34,19.05 C14.55,19.12 15.34,18.63 16.07,18.39 C16.991735,18.1234138 17.9262379,17.9031381 18.87,17.73 C20.0307022,17.5761591 21.1993069,17.4893485 22.37,17.47 C23.5486497,17.5044635 24.7225327,17.6348949 25.88,17.86 C26.7650794,18.0454641 27.6343735,18.2995654 28.48,18.62 L28.48,1.62 C28.25,1.55 27.25,1.21 26.43,0.98 C25.3318417,0.685255919 24.2055651,0.507599205 23.07,0.45 C22.1781387,0.436368663 21.2863185,0.479790619 20.4,0.58 C19.24,0.71 16.88,1.24 15.75,1.5 C15.2276518,1.57715279 14.7231537,1.74644746 14.26,2 L14.26,2 C13.973255,1.94458219 13.6944699,1.85389305 13.43,1.73 L13.17,1.63 C12.3726409,1.35102044 11.553029,1.14026309 10.72,1 C9.33149645,0.662253717 7.90891791,0.484431399 6.48,0.47 L6.07,0.47 C4.13912067,0.49984408 2.23039015,0.886336582 0.44,1.61 L0.44,18.75 C0.63,18.67 1.1,18.46 1.63,18.26 C2.01207224,18.140877 2.40343541,18.0539074 2.8,18 C3.09,17.94 3.42,17.88 3.85,17.77 C4.96427913,17.5370935 6.10213606,17.4363982 7.24,17.47 Z" id="形状"></path>
            <path d="M14.38,19.5 L14.12,19.44 C13.73,19.31 12.41,18.88 11.43,18.54 C10.06754,18.1434045 8.65872802,17.928216 7.24,17.9 C6.15348953,17.8568303 5.06572256,17.9441203 4,18.16 C3.59,18.26 3.27,18.32 3,18.38 C2.60603555,18.4446955 2.21806061,18.5416892 1.84,18.67 C1.21,18.91 0.67,19.15 0.59,19.19 L0,19.43 L0,1.32 L0.19,1.24 C2.06327899,0.466066346 4.06365754,0.0456478037 6.09,-6.9345571e-16 L6.5,-6.9345571e-16 C7.95196576,0.00568865855 9.3983454,0.180193859 10.81,0.52 C11.6565345,0.680771046 12.48664,0.918422239 13.29,1.23 L13.54,1.32 C13.87,1.45 14.06,1.51 14.16,1.54 C14.6361048,1.30875274 15.1403678,1.1406651 15.66,1.04 C16.8,0.82 19.17,0.28 20.35,0.14 C21.2528667,0.036738004 22.1613026,-0.0100197255 23.07,-3.11599704e-15 C24.2458582,0.0561725478 25.4124132,0.237189699 26.55,0.54 C27.31,0.76 28.26,1.07 28.63,1.2 L28.84,1.27 L28.91,1.51 L28.91,19.27 L28.4,19.06 C27.5553846,18.7340248 26.6859133,18.4765275 25.8,18.29 C24.6693074,18.0660872 23.522099,17.9356466 22.37,17.9 C21.2258775,17.9193034 20.0838917,18.0061211 18.95,18.16 C18.65,18.22 17.12,18.51 16.2,18.81 C15.28,19.11 14.5,19.45 14.49,19.46 L14.38,19.5 Z M7.24,17.16 C8.740596,17.1856087 10.2308092,17.4143547 11.67,17.84 C12.67,18.17 13.92,18.59 14.33,18.72 C14.64,18.59 15.33,18.31 15.97,18.1 C16.97,17.79 18.51,17.49 18.81,17.43 C19.9901273,17.2682088 21.1789705,17.1780437 22.37,17.16 C23.5664254,17.1915585 24.7577234,17.3287586 25.93,17.57 C26.6919758,17.7167289 27.4410218,17.9240542 28.17,18.19 L28.17,1.83 C27.79,1.71 27,1.45 26.35,1.26 C25.2773058,0.976739783 24.1780583,0.805820207 23.07,0.75 C22.1914423,0.736284862 21.3129224,0.779709799 20.44,0.88 C19.28,1.01 16.85,1.56 15.82,1.8 C15.3394906,1.88308586 14.8742591,2.03816302 14.44,2.26 L14.36,2.32 L14.25,2.32 C13.9029244,2.28550719 13.5645223,2.19075459 13.25,2.04 L13,2 C12.2311143,1.70533293 11.438151,1.47781603 10.63,1.32 C9.26594397,0.976036378 7.86659123,0.791469469 6.46,0.77 L6.06,0.77 C4.2370159,0.788220911 2.43320587,1.14423605 0.74,1.82 L0.74,18.29 L1.52,18 C1.91566394,17.8550942 2.32415095,17.7479501 2.74,17.68 C3.04,17.62 3.36,17.56 3.74,17.46 C4.88975303,17.2155227 6.06541336,17.1147518 7.24,17.16 Z" id="形状"></path>
            <path d="M14.35,17.93 L14.35,17.93 L11.73,17.08 C10.4285484,16.7063689 9.08379785,16.5046563 7.73,16.48 C6.67754321,16.4365837 5.62363292,16.5171374 4.59,16.72 C4.18,16.82 3.87,16.87 3.59,16.93 C3.22251184,16.9868386 2.86100185,17.0772161 2.51,17.2 C1.87,17.44 1.33,17.68 1.32,17.68 L1.23,17.68 L1.23,1.7 L1.23,1.7 C2.94243484,0.999438694 4.77010092,0.623054769 6.62,0.59 L7,0.61 C8.34707382,0.61058233 9.68948073,0.768315142 11,1.08 C11.7787599,1.21974706 12.5422747,1.43406702 13.28,1.72 L13.52,1.81 C13.7542433,1.90364037 13.9948504,1.98050097 14.24,2.04 C14.6848788,1.80569777 15.164204,1.64367234 15.66,1.56 C16.7,1.32 18.91,0.83 20,0.71 C20.8366376,0.6170071 21.6783117,0.576927381 22.52,0.59 C23.5945486,0.638381643 24.66073,0.802667461 25.7,1.08 C26.56,1.32 27.65,1.68 27.7,1.68 L27.75,1.68 L27.75,17.6 L27.66,17.6 C26.8474124,17.2930775 26.0113604,17.0522945 25.16,16.88 C24.0888229,16.6681367 23.0015763,16.5477032 21.91,16.52 C20.8194234,16.5326859 19.7306766,16.612839 18.65,16.76 C17.7699049,16.9132243 16.8986551,17.1135116 16.04,17.36 C15.29,17.6 14.42,17.96 14.41,17.96 L14.35,17.93 Z M7.7,16.34 C9.07088303,16.3651573 10.4325256,16.5702443 11.75,16.95 C12.75,17.29 14.15,17.73 14.34,17.79 C14.53,17.85 15.27,17.41 15.96,17.19 C16.8250128,16.9419699 17.7030034,16.7416678 18.59,16.59 C19.6771693,16.439457 20.7725733,16.3559658 21.87,16.34 C22.9717127,16.3720118 24.068842,16.4957733 25.15,16.71 C25.9741706,16.8734668 26.7835493,17.1042401 27.57,17.4 L27.57,1.79 C27.36,1.72 26.42,1.42 25.66,1.2 C24.6319796,0.935588332 23.580065,0.774786097 22.52,0.72 C21.678307,0.706633055 20.8366143,0.746713659 20,0.84 C18.91,0.96 16.71,1.45 15.65,1.69 C15.1624284,1.76286281 14.6917395,1.92201663 14.26,2.16 L14.26,2.16 L14.26,2.16 C13.9896538,2.1007079 13.7252386,2.01703221 13.47,1.91 L13.24,1.82 C12.5133864,1.54912881 11.763627,1.34495327 11,1.21 C9.68978677,0.896589815 8.34717605,0.738833056 7,0.74 L6.62,0.74 C4.81108111,0.768726248 3.0222786,1.12445402 1.34,1.79 L1.34,17.52 L2.45,17.07 C2.807483,16.946024 3.17574196,16.8556332 3.55,16.8 C3.82,16.74 4.13,16.69 4.55,16.59 C5.58618825,16.38074 6.6437756,16.2968045 7.7,16.34 Z" id="形状"></path>
            <path d="M14.4,18.24 L14.24,18.24 L11.62,17.39 C10.3443753,17.0245061 9.02669465,16.8261817 7.7,16.8 C6.67237806,16.7480467 5.64219563,16.8151596 4.63,17 L3.63,17.22 C3.28962165,17.2720747 2.9548396,17.3557702 2.63,17.47 C2.04,17.69 1.53,17.92 1.46,17.95 L0.93,18.18 L0.93,1.5 L1.12,1.42 C2.87064739,0.704727817 4.73913087,0.321536105 6.63,0.29 L7,0.29 C8.34688313,0.303110435 9.68825462,0.464075014 11,0.77 C11.7904288,0.920219923 12.5665829,1.1376769 13.32,1.42 L13.55,1.51 L14.13,1.71 C14.5703011,1.49427312 15.0379318,1.33951765 15.52,1.25 C16.66,1 18.87,0.53 20,0.41 C20.8367828,0.318850696 21.6783423,0.278776432 22.52,0.29 C23.6209014,0.337958483 24.7136445,0.502205151 25.78,0.78 C26.65,1.02 27.78,1.39 27.78,1.4 L27.99,1.46 L27.99,1.7 L27.99,18.05 L27.48,17.85 C26.6943785,17.5367212 25.8807044,17.298981 25.05,17.14 C23.9955397,16.929039 22.9249759,16.8086006 21.85,16.78 C20.7793329,16.7922852 19.710522,16.872446 18.65,17.02 C17.7804376,17.1722251 16.9192961,17.3691528 16.07,17.61 C15.43,17.82 14.69,18.11 14.48,18.2 L14.4,18.24 Z M7.7,16 C9.10443773,16.0249733 10.4995876,16.2334053 11.85,16.62 L14.33,17.43 C14.63,17.31 15.28,17.05 15.87,16.86 C16.75,16.59 18.13,16.32 18.53,16.25 C19.6372842,16.0994934 20.7526486,16.016008 21.87,16 C22.988277,16.0316819 24.1020435,16.1554337 25.2,16.37 C25.902976,16.5048868 26.5948994,16.6920738 27.27,16.93 L27.27,2 C26.89,1.87 26.18,1.64 25.58,1.48 C24.5791356,1.21560086 23.5537496,1.05475599 22.52,1 C21.6949511,0.9873492 20.869937,1.02743086 20.05,1.12 C18.98,1.24 16.79,1.72 15.74,1.96 C15.2912094,2.03385487 14.8562455,2.17547102 14.45,2.38 L14.37,2.44 L14.26,2.44 C13.9443325,2.40447165 13.6367893,2.31660217 13.35,2.18 L13.11,2.09 C12.3915487,1.81038499 11.6482298,1.59944312 10.89,1.46 C9.61242364,1.18028021 8.30781969,1.04277697 7,1.05 L6.6,1.05 C4.90250616,1.06091969 3.22139215,1.38290726 1.64,2 L1.64,17.06 L2.34,16.79 C2.71022543,16.6583242 3.09185729,16.5612424 3.48,16.5 C3.76,16.45 4.06,16.39 4.48,16.29 C5.53853268,16.0693089 6.61906909,15.9719935 7.7,16 Z" id="形状"></path>
            <rect id="矩形" transform="translate(14.452072, 9.866167) rotate(-0.450000) translate(-14.452072, -9.866167) " x="14.3870722" y="2.00616745" width="1" height="15.72"></rect>
            <rect id="矩形" transform="translate(14.457111, 9.871128) rotate(-0.450000) translate(-14.457111, -9.871128) " x="14.0871113" y="1.70612802" width="1" height="16.33"></rect>
        </g>
    </g>
</svg>